<svg width="601.563" height="75.098" viewBox="0 0 601.563 75.098" xmlns="http://www.w3.org/2000/svg"><g id="svgGroup" stroke-linecap="round" fill-rule="evenodd" font-size="9pt" stroke="#879288" stroke-width="0.25mm" fill="#879288" style="stroke:#879288;stroke-width:0.25mm;fill:#879288"><path d="M 261.67 0 L 261.67 57.275 A 22.245 22.245 0 0 1 261.463 60.382 A 17.001 17.001 0 0 1 260.84 63.159 A 18.619 18.619 0 0 1 259.665 66.038 A 15.321 15.321 0 0 1 258.643 67.749 A 14.948 14.948 0 0 1 255.525 71.075 A 14.204 14.204 0 0 1 255.469 71.118 A 18.521 18.521 0 0 1 251.685 73.389 A 19.451 19.451 0 0 1 247.681 74.683 A 20.798 20.798 0 0 1 245.352 75.029 A 16.981 16.981 0 0 1 243.848 75.098 L 220.947 75.098 A 22.114 22.114 0 0 1 217.847 74.89 A 16.683 16.683 0 0 1 215.088 74.268 A 17.956 17.956 0 0 1 212.092 73.011 A 15.128 15.128 0 0 1 210.523 72.046 A 15.521 15.521 0 0 1 207.419 69.183 A 14.529 14.529 0 0 1 207.153 68.848 A 18.521 18.521 0 0 1 204.883 65.063 A 19.451 19.451 0 0 1 203.589 61.06 A 21.115 21.115 0 0 1 203.256 58.894 A 16.53 16.53 0 0 1 203.174 57.275 L 203.174 40.088 Q 203.174 35.669 204.633 32.47 A 13.198 13.198 0 0 1 204.956 31.812 A 18.559 18.559 0 0 1 207.311 28.312 A 15.587 15.587 0 0 1 209.4 26.294 Q 212.061 24.17 215.186 23.242 A 24.203 24.203 0 0 1 218.008 22.576 Q 219.547 22.314 220.947 22.314 L 243.848 22.314 L 243.848 35.01 L 221.045 35.01 Q 219.27 35.01 218.091 35.642 A 3.945 3.945 0 0 0 217.188 36.304 Q 216.019 37.451 215.886 39.537 A 8.671 8.671 0 0 0 215.869 40.088 L 215.869 57.178 A 8.245 8.245 0 0 0 215.995 58.669 Q 216.273 60.177 217.163 61.084 Q 218.31 62.252 220.396 62.385 A 8.671 8.671 0 0 0 220.947 62.402 L 243.848 62.402 A 8.063 8.063 0 0 0 245.302 62.28 Q 246.098 62.134 246.719 61.813 A 3.739 3.739 0 0 0 247.705 61.084 A 4.243 4.243 0 0 0 248.696 59.352 Q 248.896 58.699 248.953 57.912 A 8.905 8.905 0 0 0 248.975 57.275 L 248.975 0 L 261.67 0 Z M 123.291 39.795 L 123.291 57.617 A 17.285 17.285 0 0 1 123.006 60.67 A 23.113 23.113 0 0 1 122.363 63.306 A 16.999 16.999 0 0 1 119.36 68.97 A 15.856 15.856 0 0 1 115.733 72.276 A 19.604 19.604 0 0 1 113.941 73.34 Q 110.792 74.995 106.366 75.092 A 25.375 25.375 0 0 1 105.811 75.098 L 82.91 75.098 A 17.285 17.285 0 0 1 79.857 74.812 A 23.113 23.113 0 0 1 77.222 74.17 A 16.999 16.999 0 0 1 71.558 71.167 A 15.856 15.856 0 0 1 68.252 67.54 A 19.604 19.604 0 0 1 67.188 65.747 Q 65.533 62.598 65.436 58.173 A 25.375 25.375 0 0 1 65.43 57.617 A 17.294 17.294 0 0 1 65.692 54.692 A 23.362 23.362 0 0 1 66.358 51.904 Q 67.285 48.828 69.36 46.216 A 15.856 15.856 0 0 1 72.988 42.91 A 19.604 19.604 0 0 1 74.78 41.846 Q 77.929 40.191 82.354 40.094 A 25.375 25.375 0 0 1 82.91 40.088 L 105.811 40.088 L 105.811 52.197 L 82.91 52.197 A 6.766 6.766 0 0 0 81.27 52.385 A 4.567 4.567 0 0 0 78.906 53.784 A 5.543 5.543 0 0 0 77.515 57.106 A 7.291 7.291 0 0 0 77.49 57.715 A 6.086 6.086 0 0 0 77.702 59.363 A 4.442 4.442 0 0 0 79.126 61.597 A 5.797 5.797 0 0 0 83.008 62.988 L 105.811 62.988 A 6.867 6.867 0 0 0 107.451 62.804 A 4.581 4.581 0 0 0 109.815 61.426 A 5.422 5.422 0 0 0 111.196 58.233 A 7.197 7.197 0 0 0 111.231 57.52 L 111.231 39.795 A 6.509 6.509 0 0 0 111.014 38.071 A 4.755 4.755 0 0 0 109.692 35.84 Q 108.154 34.375 105.811 34.375 L 77.93 34.375 L 77.93 22.314 L 105.811 22.314 A 17.285 17.285 0 0 1 108.863 22.6 A 23.113 23.113 0 0 1 111.499 23.242 A 16.999 16.999 0 0 1 117.163 26.245 A 15.856 15.856 0 0 1 120.469 29.872 A 19.604 19.604 0 0 1 121.533 31.665 Q 123.188 34.814 123.285 39.239 A 25.375 25.375 0 0 1 123.291 39.795 Z M 328.272 39.795 L 328.272 57.617 A 17.285 17.285 0 0 1 327.986 60.67 A 23.113 23.113 0 0 1 327.344 63.306 A 16.999 16.999 0 0 1 324.341 68.97 A 15.856 15.856 0 0 1 320.714 72.276 A 19.604 19.604 0 0 1 318.921 73.34 Q 315.772 74.995 311.347 75.092 A 25.375 25.375 0 0 1 310.791 75.098 L 287.891 75.098 A 17.285 17.285 0 0 1 284.838 74.812 A 23.113 23.113 0 0 1 282.202 74.17 A 16.999 16.999 0 0 1 276.538 71.167 A 15.856 15.856 0 0 1 273.232 67.54 A 19.604 19.604 0 0 1 272.168 65.747 Q 270.513 62.598 270.416 58.173 A 25.375 25.375 0 0 1 270.41 57.617 A 17.294 17.294 0 0 1 270.672 54.692 A 23.362 23.362 0 0 1 271.338 51.904 Q 272.266 48.828 274.341 46.216 A 15.856 15.856 0 0 1 277.968 42.91 A 19.604 19.604 0 0 1 279.761 41.846 Q 282.91 40.191 287.335 40.094 A 25.375 25.375 0 0 1 287.891 40.088 L 310.791 40.088 L 310.791 52.197 L 287.891 52.197 A 6.766 6.766 0 0 0 286.25 52.385 A 4.567 4.567 0 0 0 283.887 53.784 A 5.543 5.543 0 0 0 282.496 57.106 A 7.291 7.291 0 0 0 282.471 57.715 A 6.086 6.086 0 0 0 282.682 59.363 A 4.442 4.442 0 0 0 284.107 61.597 A 5.797 5.797 0 0 0 287.988 62.988 L 310.791 62.988 A 6.867 6.867 0 0 0 312.432 62.804 A 4.581 4.581 0 0 0 314.795 61.426 A 5.422 5.422 0 0 0 316.176 58.233 A 7.197 7.197 0 0 0 316.211 57.52 L 316.211 39.795 A 6.509 6.509 0 0 0 315.995 38.071 A 4.755 4.755 0 0 0 314.673 35.84 Q 313.135 34.375 310.791 34.375 L 282.91 34.375 L 282.91 22.314 L 310.791 22.314 A 17.285 17.285 0 0 1 313.844 22.6 A 23.113 23.113 0 0 1 316.48 23.242 A 16.999 16.999 0 0 1 322.144 26.245 A 15.856 15.856 0 0 1 325.45 29.872 A 19.604 19.604 0 0 1 326.514 31.665 Q 328.169 34.814 328.266 39.239 A 25.375 25.375 0 0 1 328.272 39.795 Z M 372.315 75.098 L 337.94 75.098 L 337.94 62.402 L 372.217 62.402 A 8.093 8.093 0 0 0 373.71 62.274 Q 374.534 62.119 375.179 61.777 A 3.922 3.922 0 0 0 376.123 61.084 A 4.239 4.239 0 0 0 377.18 59.261 Q 377.376 58.603 377.425 57.815 A 8.7 8.7 0 0 0 377.442 57.275 A 7.703 7.703 0 0 0 377.093 55.235 Q 376.334 52.933 373.981 52.375 A 7.233 7.233 0 0 0 372.315 52.197 L 352.637 52.197 A 20.092 20.092 0 0 1 349.434 51.956 Q 347.657 51.668 346.176 51.04 A 11.729 11.729 0 0 1 345.508 50.732 A 16.091 16.091 0 0 1 342.632 48.911 A 13.12 13.12 0 0 1 340.747 47.07 A 14.339 14.339 0 0 1 338.577 43.582 A 13.162 13.162 0 0 1 338.11 42.334 Q 337.305 39.795 337.305 37.598 A 19.8 19.8 0 0 1 337.545 34.426 Q 337.829 32.681 338.446 31.232 A 11.292 11.292 0 0 1 338.818 30.444 A 15.435 15.435 0 0 1 340.861 27.417 A 13.051 13.051 0 0 1 342.627 25.732 A 14.941 14.941 0 0 1 347.608 23.12 A 20.157 20.157 0 0 1 350.208 22.516 A 15.357 15.357 0 0 1 352.637 22.314 L 383.838 22.314 L 383.838 35.01 L 352.734 35.01 Q 351.78 35.01 351.222 35.22 A 2.076 2.076 0 0 0 351.196 35.229 A 2.45 2.45 0 0 0 350.82 35.413 Q 350.62 35.534 350.477 35.684 A 1.331 1.331 0 0 0 350.366 35.815 A 1.718 1.718 0 0 0 350.117 36.289 A 1.54 1.54 0 0 0 350.049 36.597 Q 350 37.012 350 37.402 A 4.635 4.635 0 0 0 350.05 37.857 Q 350.087 38.087 350.147 38.278 A 1.875 1.875 0 0 0 350.293 38.623 A 1.868 1.868 0 0 0 350.521 38.95 A 1.362 1.362 0 0 0 350.903 39.258 A 1.876 1.876 0 0 0 351.508 39.455 A 2.293 2.293 0 0 0 351.734 39.478 A 17.239 17.239 0 0 0 352.609 39.502 A 16.024 16.024 0 0 0 352.637 39.502 L 372.315 39.502 A 22.688 22.688 0 0 1 376.04 39.792 Q 378.188 40.15 379.969 40.949 A 13.487 13.487 0 0 1 380.615 41.26 A 18.072 18.072 0 0 1 384.033 43.514 A 14.985 14.985 0 0 1 386.133 45.679 Q 388.233 48.34 389.185 51.465 A 23.335 23.335 0 0 1 389.891 54.435 A 17.329 17.329 0 0 1 390.137 57.275 A 22.245 22.245 0 0 1 389.929 60.382 A 17.001 17.001 0 0 1 389.307 63.159 A 18.619 18.619 0 0 1 388.132 66.038 A 15.321 15.321 0 0 1 387.109 67.749 A 14.948 14.948 0 0 1 383.992 71.075 A 14.204 14.204 0 0 1 383.936 71.118 A 18.521 18.521 0 0 1 380.151 73.389 A 19.451 19.451 0 0 1 376.148 74.683 A 20.798 20.798 0 0 1 373.819 75.029 A 16.981 16.981 0 0 1 372.315 75.098 Z M 192.627 45.801 L 192.627 75.098 L 179.932 75.098 L 179.932 45.801 A 12.457 12.457 0 0 0 179.691 43.3 A 9.997 9.997 0 0 0 179.077 41.333 A 10.466 10.466 0 0 0 177.033 38.216 A 9.999 9.999 0 0 0 176.758 37.939 Q 175.293 36.523 173.316 35.767 Q 171.338 35.01 169.043 35.01 L 146.826 35.01 L 146.826 75.098 L 134.131 75.098 L 134.131 28.613 A 6.277 6.277 0 0 1 134.525 26.382 A 6.005 6.005 0 0 1 134.619 26.147 Q 135.108 25 135.986 24.146 Q 136.865 23.291 138.037 22.803 A 6.409 6.409 0 0 1 140.527 22.314 L 169.141 22.314 A 23.957 23.957 0 0 1 172.397 22.546 A 29.049 29.049 0 0 1 174.194 22.852 A 24.025 24.025 0 0 1 179.305 24.511 A 26.536 26.536 0 0 1 179.468 24.585 A 25.461 25.461 0 0 1 184.448 27.612 A 20.122 20.122 0 0 1 188.387 31.692 A 22.667 22.667 0 0 1 188.648 32.056 A 20.742 20.742 0 0 1 190.869 36.177 A 25.001 25.001 0 0 1 191.553 38.086 Q 192.627 41.504 192.627 45.801 Z M 601.563 62.402 L 601.563 75.098 L 567.139 75.098 Q 564.502 75.098 561.377 74.17 Q 558.252 73.242 555.591 71.118 A 16.257 16.257 0 0 1 552.22 67.409 A 19.917 19.917 0 0 1 551.148 65.601 A 14.704 14.704 0 0 1 549.811 61.823 Q 549.449 60.131 549.381 58.187 A 26.126 26.126 0 0 1 549.365 57.275 L 549.365 40.088 A 17.666 17.666 0 0 1 549.553 37.572 A 21.348 21.348 0 0 1 549.78 36.279 A 19.51 19.51 0 0 1 551.02 32.423 A 21.501 21.501 0 0 1 551.074 32.3 Q 551.953 30.322 553.345 28.516 A 14.926 14.926 0 0 1 556.699 25.352 A 16.285 16.285 0 0 1 556.714 25.342 A 16.251 16.251 0 0 1 559.722 23.716 A 19.737 19.737 0 0 1 561.279 23.145 Q 563.867 22.314 567.139 22.314 L 601.563 22.314 L 601.563 35.01 L 567.139 35.01 A 7.823 7.823 0 0 0 565.699 35.134 Q 564.244 35.406 563.355 36.279 A 3.92 3.92 0 0 0 562.41 37.815 Q 562.061 38.816 562.061 40.186 L 562.061 57.275 Q 562.061 59.121 562.785 60.323 A 3.966 3.966 0 0 0 563.379 61.084 A 4.201 4.201 0 0 0 565.124 62.113 Q 565.787 62.321 566.588 62.379 A 8.897 8.897 0 0 0 567.236 62.402 L 601.563 62.402 Z M 63.574 5.078 L 63.574 17.773 L 12.695 17.773 L 12.695 75.098 L 0 75.098 L 0 11.475 A 6.409 6.409 0 0 1 0.488 8.984 Q 0.977 7.813 1.831 6.934 A 6.022 6.022 0 0 1 3.858 5.566 A 6.434 6.434 0 0 1 6.058 5.086 A 7.46 7.46 0 0 1 6.397 5.078 L 63.574 5.078 Z M 517.041 22.314 L 517.041 35.01 L 494.873 35.01 L 494.873 75.098 L 482.031 75.098 L 482.031 35.01 L 465.527 35.01 L 465.527 22.314 L 482.031 22.314 L 482.031 5.078 L 494.873 5.078 L 494.873 22.314 L 517.041 22.314 Z M 457.715 40.088 L 457.715 75.098 L 445.02 75.098 L 445.02 40.088 A 7.823 7.823 0 0 0 444.896 38.648 Q 444.623 37.193 443.75 36.304 A 3.988 3.988 0 0 0 442.118 35.318 Q 441.181 35.01 439.942 35.01 L 417.041 35.01 L 417.041 22.314 L 439.942 22.314 A 17.666 17.666 0 0 1 442.457 22.502 A 21.348 21.348 0 0 1 443.75 22.729 A 19.51 19.51 0 0 1 447.606 23.969 A 21.501 21.501 0 0 1 447.73 24.023 Q 449.707 24.902 451.514 26.294 A 14.926 14.926 0 0 1 454.677 29.648 A 16.285 16.285 0 0 1 454.688 29.663 A 16.251 16.251 0 0 1 456.314 32.671 A 19.737 19.737 0 0 1 456.885 34.229 Q 457.715 36.816 457.715 40.088 Z M 411.914 0 L 411.914 75.098 L 399.219 75.098 L 399.219 0 L 411.914 0 Z M 538.281 22.314 L 538.281 75.098 L 525.586 75.098 L 525.586 22.314 L 538.281 22.314 Z M 57.91 33.691 L 57.91 46.484 L 17.774 46.484 L 17.774 33.691 L 57.91 33.691 Z M 538.281 0 L 538.281 11.475 L 525.586 11.475 L 525.586 0 L 538.281 0 Z" vector-effect="non-scaling-stroke"/></g></svg>